<svg width="1024" height="177" viewBox="0 0 1024 177" fill="none" xmlns="http://www.w3.org/2000/svg">
<path fill-rule="evenodd" clip-rule="evenodd" d="M1024 72.9998L981.333 86.4813C938.667 99.9628 853.333 126.926 768 128.852C682.667 130.778 597.333 107.667 512 96.111C426.667 84.5554 341.333 84.5554 256 88.4073C170.667 92.2591 85.3333 99.9628 42.6666 103.815L0 107.667V177H42.6666C85.3333 177 170.667 177 256 177C341.333 177 426.667 177 512 177C597.333 177 682.667 177 768 177C853.333 177 938.667 177 981.333 177H1024V72.9998Z" fill="#3F3D56"/>
<path d="M495.332 28.6312C495.332 29.4564 495.229 30.2084 495.024 30.8871C494.819 31.5609 494.507 32.142 494.087 32.6302C493.672 33.1185 493.145 33.4945 492.505 33.7582C491.865 34.017 491.108 34.1463 490.234 34.1463C489.36 34.1463 488.604 34.017 487.964 33.7582C487.324 33.4945 486.794 33.1185 486.375 32.6302C485.959 32.142 485.649 31.5585 485.444 30.8797C485.239 30.201 485.137 29.4466 485.137 28.6166C485.137 27.5082 485.317 26.5438 485.679 25.7235C486.045 24.8983 486.606 24.2587 487.363 23.8046C488.12 23.3504 489.082 23.1234 490.249 23.1234C491.411 23.1234 492.366 23.3504 493.113 23.8046C493.865 24.2587 494.421 24.8983 494.783 25.7235C495.149 26.5487 495.332 27.5179 495.332 28.6312ZM487.517 28.6312C487.517 29.3783 487.61 30.0228 487.795 30.5648C487.986 31.1019 488.281 31.517 488.682 31.8099C489.082 32.098 489.6 32.2421 490.234 32.2421C490.879 32.2421 491.401 32.098 491.802 31.8099C492.202 31.517 492.493 31.1019 492.673 30.5648C492.859 30.0228 492.952 29.3783 492.952 28.6312C492.952 27.5082 492.742 26.6244 492.322 25.9798C491.902 25.3353 491.211 25.013 490.249 25.013C489.609 25.013 489.087 25.1595 488.682 25.4525C488.281 25.7406 487.986 26.1556 487.795 26.6976C487.61 27.2347 487.517 27.8793 487.517 28.6312ZM501.902 27.4886H499.968V33.9999H497.734V27.4886H496.504V26.412L497.734 25.8114V25.2108C497.734 24.5126 497.852 23.9706 498.086 23.5848C498.325 23.1942 498.66 22.9208 499.089 22.7645C499.524 22.6034 500.037 22.5228 500.627 22.5228C501.062 22.5228 501.458 22.5594 501.814 22.6327C502.17 22.701 502.461 22.7792 502.686 22.8671L502.114 24.5077C501.943 24.454 501.758 24.4051 501.558 24.3612C501.357 24.3172 501.128 24.2953 500.869 24.2953C500.557 24.2953 500.327 24.3905 500.181 24.5809C500.039 24.7665 499.968 25.0057 499.968 25.2987V25.8114H501.902V27.4886ZM506.567 25.6576C507.324 25.6576 507.976 25.8041 508.523 26.097C509.07 26.3851 509.492 26.805 509.79 27.3568C510.088 27.9086 510.237 28.5824 510.237 29.3783V30.4623H504.956C504.98 31.0921 505.168 31.5878 505.52 31.9491C505.876 32.3055 506.37 32.4837 507 32.4837C507.522 32.4837 508 32.43 508.435 32.3226C508.87 32.2152 509.316 32.0541 509.775 31.8392V33.5677C509.37 33.7679 508.945 33.9144 508.501 34.0072C508.062 34.1 507.527 34.1463 506.897 34.1463C506.077 34.1463 505.349 33.995 504.714 33.6922C504.084 33.3895 503.589 32.9281 503.228 32.308C502.871 31.6879 502.693 30.9066 502.693 29.9642C502.693 29.0072 502.854 28.2113 503.176 27.5765C503.503 26.9369 503.958 26.4584 504.539 26.141C505.12 25.8187 505.796 25.6576 506.567 25.6576ZM506.582 27.2469C506.147 27.2469 505.786 27.3861 505.498 27.6644C505.215 27.9427 505.051 28.3797 505.007 28.9754H508.142C508.137 28.6434 508.076 28.348 507.959 28.0892C507.847 27.8304 507.676 27.6254 507.446 27.474C507.222 27.3226 506.934 27.2469 506.582 27.2469ZM516.624 25.6576C516.736 25.6576 516.865 25.6649 517.012 25.6796C517.163 25.6893 517.285 25.704 517.378 25.7235L517.209 27.8182C517.136 27.7938 517.031 27.7767 516.895 27.767C516.763 27.7523 516.648 27.745 516.55 27.745C516.262 27.745 515.981 27.7816 515.708 27.8548C515.439 27.9281 515.198 28.0477 514.983 28.2137C514.768 28.3749 514.597 28.5897 514.47 28.8583C514.348 29.1219 514.287 29.4466 514.287 29.8324V33.9999H512.053V25.8114H513.745L514.075 27.1883H514.185C514.346 26.91 514.546 26.6561 514.785 26.4266C515.029 26.1922 515.305 26.0067 515.613 25.87C515.925 25.7284 516.262 25.6576 516.624 25.6576ZM522.314 32.3666C522.559 32.3666 522.795 32.3421 523.025 32.2933C523.259 32.2445 523.491 32.1835 523.721 32.1102V33.7728C523.481 33.8802 523.184 33.9681 522.827 34.0365C522.476 34.1097 522.09 34.1463 521.67 34.1463C521.182 34.1463 520.742 34.0682 520.352 33.912C519.966 33.7508 519.661 33.475 519.436 33.0843C519.216 32.6888 519.106 32.1395 519.106 31.4364V27.4886H518.037V26.5438L519.268 25.7967L519.912 24.0682H521.34V25.8114H523.633V27.4886H521.34V31.4364C521.34 31.7489 521.428 31.9833 521.604 32.1395C521.785 32.2909 522.021 32.3666 522.314 32.3666ZM528.738 25.6429C529.836 25.6429 530.679 25.8822 531.265 26.3607C531.851 26.8392 532.144 27.5668 532.144 28.5433V33.9999H530.583L530.151 32.8866H530.093C529.858 33.1796 529.619 33.4188 529.375 33.6044C529.131 33.7899 528.85 33.9266 528.533 34.0145C528.215 34.1024 527.83 34.1463 527.375 34.1463C526.892 34.1463 526.458 34.0536 526.072 33.868C525.691 33.6825 525.391 33.3993 525.171 33.0184C524.951 32.6327 524.841 32.1444 524.841 31.5536C524.841 30.6844 525.146 30.0448 525.757 29.6346C526.367 29.2196 527.283 28.9901 528.503 28.9462L529.924 28.9022V28.5433C529.924 28.1136 529.812 27.7987 529.587 27.5985C529.363 27.3983 529.05 27.2982 528.65 27.2982C528.254 27.2982 527.866 27.3544 527.485 27.4667C527.104 27.579 526.724 27.7206 526.343 27.8915L525.603 26.3827C526.038 26.1532 526.523 25.9725 527.061 25.8407C527.603 25.7088 528.162 25.6429 528.738 25.6429ZM529.924 30.2059L529.06 30.2352C528.337 30.2547 527.834 30.3841 527.551 30.6234C527.273 30.8627 527.134 31.1776 527.134 31.5682C527.134 31.91 527.234 32.1542 527.434 32.3006C527.634 32.4422 527.896 32.513 528.218 32.513C528.696 32.513 529.099 32.3714 529.426 32.0882C529.758 31.805 529.924 31.4022 529.924 30.8797V30.2059ZM540.164 31.5682C540.164 32.1249 540.032 32.5961 539.768 32.9818C539.509 33.3627 539.121 33.6532 538.604 33.8534C538.086 34.0487 537.441 34.1463 536.67 34.1463C536.099 34.1463 535.608 34.1097 535.198 34.0365C534.792 33.9632 534.382 33.8412 533.967 33.6703V31.8246C534.412 32.0248 534.888 32.1908 535.396 32.3226C535.908 32.4496 536.357 32.513 536.743 32.513C537.178 32.513 537.488 32.4496 537.673 32.3226C537.864 32.1908 537.959 32.0199 537.959 31.8099C537.959 31.6732 537.92 31.5511 537.842 31.4437C537.769 31.3314 537.607 31.2069 537.358 31.0702C537.109 30.9286 536.719 30.7455 536.187 30.5209C535.674 30.306 535.251 30.0887 534.919 29.869C534.592 29.6493 534.348 29.3905 534.187 29.0926C534.031 28.7899 533.953 28.4066 533.953 27.9427C533.953 27.1859 534.246 26.6171 534.832 26.2362C535.422 25.8504 536.211 25.6576 537.197 25.6576C537.705 25.6576 538.188 25.7088 538.647 25.8114C539.111 25.9139 539.587 26.0775 540.076 26.3021L539.402 27.9134C538.997 27.7377 538.613 27.5936 538.252 27.4813C537.896 27.369 537.532 27.3129 537.161 27.3129C536.833 27.3129 536.587 27.3568 536.421 27.4447C536.255 27.5326 536.172 27.6669 536.172 27.8475C536.172 27.9794 536.213 28.0965 536.296 28.1991C536.384 28.3016 536.55 28.4164 536.794 28.5433C537.043 28.6654 537.407 28.8241 537.886 29.0194C538.35 29.2098 538.752 29.41 539.094 29.62C539.436 29.8251 539.7 30.0814 539.885 30.389C540.071 30.6918 540.164 31.0848 540.164 31.5682Z" fill="#3F3D56"/>
<path d="M386.668 28.5433C386.668 29.7494 386.437 30.7577 385.973 31.5682C385.514 32.3739 384.847 32.9818 383.973 33.392C383.099 33.7972 382.047 33.9999 380.816 33.9999H377.784V23.2919H381.146C382.269 23.2919 383.243 23.4921 384.068 23.8924C384.894 24.2879 385.533 24.8763 385.987 25.6576C386.441 26.4339 386.668 27.3959 386.668 28.5433ZM384.31 28.6019C384.31 27.8109 384.193 27.1615 383.958 26.6537C383.729 26.141 383.387 25.7626 382.933 25.5184C382.484 25.2743 381.927 25.1522 381.263 25.1522H380.055V32.1249H381.029C382.137 32.1249 382.96 31.8295 383.497 31.2386C384.039 30.6478 384.31 29.7689 384.31 28.6019ZM392.088 25.6576C392.845 25.6576 393.497 25.8041 394.044 26.097C394.591 26.3851 395.013 26.805 395.311 27.3568C395.609 27.9086 395.758 28.5824 395.758 29.3783V30.4623H390.477C390.501 31.0921 390.689 31.5878 391.041 31.9491C391.397 32.3055 391.891 32.4837 392.521 32.4837C393.043 32.4837 393.521 32.43 393.956 32.3226C394.391 32.2152 394.837 32.0541 395.296 31.8392V33.5677C394.891 33.7679 394.466 33.9144 394.022 34.0072C393.583 34.1 393.048 34.1463 392.418 34.1463C391.598 34.1463 390.87 33.995 390.235 33.6922C389.605 33.3895 389.11 32.9281 388.749 32.308C388.392 31.6879 388.214 30.9066 388.214 29.9642C388.214 29.0072 388.375 28.2113 388.697 27.5765C389.024 26.9369 389.479 26.4584 390.06 26.141C390.641 25.8187 391.317 25.6576 392.088 25.6576ZM392.103 27.2469C391.668 27.2469 391.307 27.3861 391.019 27.6644C390.736 27.9427 390.572 28.3797 390.528 28.9754H393.663C393.658 28.6434 393.597 28.348 393.48 28.0892C393.368 27.8304 393.197 27.6254 392.967 27.474C392.743 27.3226 392.455 27.2469 392.103 27.2469ZM403.287 31.5682C403.287 32.1249 403.155 32.5961 402.892 32.9818C402.633 33.3627 402.245 33.6532 401.727 33.8534C401.209 34.0487 400.565 34.1463 399.793 34.1463C399.222 34.1463 398.731 34.1097 398.321 34.0365C397.916 33.9632 397.506 33.8412 397.091 33.6703V31.8246C397.535 32.0248 398.011 32.1908 398.519 32.3226C399.032 32.4496 399.481 32.513 399.867 32.513C400.301 32.513 400.611 32.4496 400.797 32.3226C400.987 32.1908 401.083 32.0199 401.083 31.8099C401.083 31.6732 401.043 31.5511 400.965 31.4437C400.892 31.3314 400.731 31.2069 400.482 31.0702C400.233 30.9286 399.842 30.7455 399.31 30.5209C398.797 30.306 398.375 30.0887 398.043 29.869C397.716 29.6493 397.472 29.3905 397.311 29.0926C397.154 28.7899 397.076 28.4066 397.076 27.9427C397.076 27.1859 397.369 26.6171 397.955 26.2362C398.546 25.8504 399.334 25.6576 400.321 25.6576C400.829 25.6576 401.312 25.7088 401.771 25.8114C402.235 25.9139 402.711 26.0775 403.199 26.3021L402.525 27.9134C402.12 27.7377 401.737 27.5936 401.375 27.4813C401.019 27.369 400.655 27.3129 400.284 27.3129C399.957 27.3129 399.71 27.3568 399.544 27.4447C399.378 27.5326 399.295 27.6669 399.295 27.8475C399.295 27.9794 399.337 28.0965 399.42 28.1991C399.508 28.3016 399.674 28.4164 399.918 28.5433C400.167 28.6654 400.531 28.8241 401.009 29.0194C401.473 29.2098 401.876 29.41 402.218 29.62C402.56 29.8251 402.823 30.0814 403.009 30.389C403.194 30.6918 403.287 31.0848 403.287 31.5682ZM408.48 32.3666C408.724 32.3666 408.961 32.3421 409.19 32.2933C409.425 32.2445 409.657 32.1835 409.886 32.1102V33.7728C409.647 33.8802 409.349 33.9681 408.993 34.0365C408.641 34.1097 408.255 34.1463 407.835 34.1463C407.347 34.1463 406.908 34.0682 406.517 33.912C406.131 33.7508 405.826 33.475 405.602 33.0843C405.382 32.6888 405.272 32.1395 405.272 31.4364V27.4886H404.203V26.5438L405.433 25.7967L406.078 24.0682H407.506V25.8114H409.798V27.4886H407.506V31.4364C407.506 31.7489 407.594 31.9833 407.77 32.1395C407.95 32.2909 408.187 32.3666 408.48 32.3666ZM413.783 25.8114V33.9999H411.549V25.8114H413.783ZM412.669 22.6034C413.001 22.6034 413.287 22.6815 413.526 22.8378C413.766 22.9891 413.885 23.2748 413.885 23.6947C413.885 24.1097 413.766 24.3978 413.526 24.5589C413.287 24.7152 413.001 24.7933 412.669 24.7933C412.333 24.7933 412.044 24.7152 411.805 24.5589C411.571 24.3978 411.454 24.1097 411.454 23.6947C411.454 23.2748 411.571 22.9891 411.805 22.8378C412.044 22.6815 412.333 22.6034 412.669 22.6034ZM420.785 25.6576C421.659 25.6576 422.362 25.8968 422.894 26.3754C423.426 26.849 423.692 27.6107 423.692 28.6605V33.9999H421.458V29.2171C421.458 28.6312 421.351 28.1893 421.136 27.8915C420.926 27.5936 420.594 27.4447 420.14 27.4447C419.457 27.4447 418.99 27.6766 418.741 28.1405C418.492 28.6044 418.368 29.2733 418.368 30.1473V33.9999H416.134V25.8114H417.84L418.141 26.8587H418.265C418.441 26.5755 418.658 26.3461 418.917 26.1703C419.181 25.9945 419.471 25.8651 419.789 25.7821C420.111 25.6991 420.443 25.6576 420.785 25.6576ZM433.434 29.891C433.434 30.5746 433.341 31.18 433.155 31.7074C432.975 32.2347 432.708 32.6815 432.357 33.0477C432.01 33.409 431.59 33.6825 431.097 33.868C430.609 34.0536 430.057 34.1463 429.442 34.1463C428.866 34.1463 428.336 34.0536 427.853 33.868C427.374 33.6825 426.957 33.409 426.6 33.0477C426.249 32.6815 425.975 32.2347 425.78 31.7074C425.589 31.18 425.494 30.5746 425.494 29.891C425.494 28.9828 425.655 28.2137 425.978 27.5838C426.3 26.954 426.759 26.4754 427.354 26.1483C427.95 25.8212 428.661 25.6576 429.486 25.6576C430.252 25.6576 430.931 25.8212 431.522 26.1483C432.118 26.4754 432.584 26.954 432.921 27.5838C433.263 28.2137 433.434 28.9828 433.434 29.891ZM427.772 29.891C427.772 30.4281 427.831 30.8797 427.948 31.246C428.065 31.6122 428.248 31.888 428.497 32.0736C428.746 32.2591 429.071 32.3519 429.471 32.3519C429.867 32.3519 430.187 32.2591 430.431 32.0736C430.68 31.888 430.86 31.6122 430.973 31.246C431.09 30.8797 431.148 30.4281 431.148 29.891C431.148 29.349 431.09 28.8998 430.973 28.5433C430.86 28.182 430.68 27.911 430.431 27.7303C430.182 27.5497 429.857 27.4593 429.457 27.4593C428.866 27.4593 428.436 27.662 428.167 28.0672C427.904 28.4725 427.772 29.0804 427.772 29.891ZM440.992 31.5682C440.992 32.1249 440.86 32.5961 440.597 32.9818C440.338 33.3627 439.95 33.6532 439.432 33.8534C438.915 34.0487 438.27 34.1463 437.499 34.1463C436.927 34.1463 436.437 34.1097 436.026 34.0365C435.621 33.9632 435.211 33.8412 434.796 33.6703V31.8246C435.24 32.0248 435.716 32.1908 436.224 32.3226C436.737 32.4496 437.186 32.513 437.572 32.513C438.006 32.513 438.316 32.4496 438.502 32.3226C438.692 32.1908 438.788 32.0199 438.788 31.8099C438.788 31.6732 438.749 31.5511 438.67 31.4437C438.597 31.3314 438.436 31.2069 438.187 31.0702C437.938 30.9286 437.547 30.7455 437.015 30.5209C436.502 30.306 436.08 30.0887 435.748 29.869C435.421 29.6493 435.177 29.3905 435.016 29.0926C434.859 28.7899 434.781 28.4066 434.781 27.9427C434.781 27.1859 435.074 26.6171 435.66 26.2362C436.251 25.8504 437.04 25.6576 438.026 25.6576C438.534 25.6576 439.017 25.7088 439.476 25.8114C439.94 25.9139 440.416 26.0775 440.904 26.3021L440.23 27.9134C439.825 27.7377 439.442 27.5936 439.081 27.4813C438.724 27.369 438.36 27.3129 437.989 27.3129C437.662 27.3129 437.416 27.3568 437.25 27.4447C437.083 27.5326 437 27.6669 437 27.8475C437 27.9794 437.042 28.0965 437.125 28.1991C437.213 28.3016 437.379 28.4164 437.623 28.5433C437.872 28.6654 438.236 28.8241 438.714 29.0194C439.178 29.2098 439.581 29.41 439.923 29.62C440.265 29.8251 440.528 30.0814 440.714 30.389C440.899 30.6918 440.992 31.0848 440.992 31.5682Z" fill="#3F3D56"/>
<path d="M589.345 25.0277C588.91 25.0277 588.524 25.1131 588.188 25.284C587.855 25.4501 587.575 25.6918 587.345 26.0091C587.121 26.3265 586.95 26.7098 586.833 27.159C586.715 27.6083 586.657 28.1136 586.657 28.6752C586.657 29.432 586.75 30.079 586.935 30.6161C587.125 31.1483 587.418 31.556 587.814 31.8392C588.209 32.1175 588.72 32.2567 589.345 32.2567C589.779 32.2567 590.214 32.2079 590.648 32.1102C591.088 32.0126 591.564 31.8734 592.077 31.6927V33.597C591.603 33.7923 591.137 33.9315 590.678 34.0145C590.219 34.1024 589.704 34.1463 589.132 34.1463C588.029 34.1463 587.121 33.9193 586.408 33.4652C585.7 33.0062 585.175 32.3666 584.833 31.5462C584.491 30.7211 584.32 29.7591 584.32 28.6605C584.32 27.85 584.43 27.1078 584.65 26.4339C584.87 25.7601 585.192 25.1766 585.617 24.6835C586.042 24.1903 586.566 23.8094 587.191 23.5409C587.816 23.2723 588.534 23.138 589.345 23.138C589.877 23.138 590.409 23.2064 590.941 23.3431C591.479 23.475 591.991 23.6581 592.479 23.8924L591.747 25.7381C591.347 25.5477 590.944 25.3817 590.539 25.2401C590.133 25.0985 589.735 25.0277 589.345 25.0277ZM601.627 29.891C601.627 30.5746 601.535 31.18 601.349 31.7074C601.168 32.2347 600.902 32.6815 600.551 33.0477C600.204 33.409 599.784 33.6825 599.291 33.868C598.803 34.0536 598.251 34.1463 597.636 34.1463C597.06 34.1463 596.53 34.0536 596.046 33.868C595.568 33.6825 595.15 33.409 594.794 33.0477C594.442 32.6815 594.169 32.2347 593.974 31.7074C593.783 31.18 593.688 30.5746 593.688 29.891C593.688 28.9828 593.849 28.2137 594.171 27.5838C594.494 26.954 594.953 26.4754 595.548 26.1483C596.144 25.8212 596.854 25.6576 597.68 25.6576C598.446 25.6576 599.125 25.8212 599.716 26.1483C600.312 26.4754 600.778 26.954 601.115 27.5838C601.457 28.2137 601.627 28.9828 601.627 29.891ZM595.966 29.891C595.966 30.4281 596.024 30.8797 596.142 31.246C596.259 31.6122 596.442 31.888 596.691 32.0736C596.94 32.2591 597.265 32.3519 597.665 32.3519C598.061 32.3519 598.38 32.2591 598.625 32.0736C598.874 31.888 599.054 31.6122 599.167 31.246C599.284 30.8797 599.342 30.4281 599.342 29.891C599.342 29.349 599.284 28.8998 599.167 28.5433C599.054 28.182 598.874 27.911 598.625 27.7303C598.375 27.5497 598.051 27.4593 597.65 27.4593C597.06 27.4593 596.63 27.662 596.361 28.0672C596.098 28.4725 595.966 29.0804 595.966 29.891ZM608.124 25.6576C608.998 25.6576 609.701 25.8968 610.233 26.3754C610.766 26.849 611.032 27.6107 611.032 28.6605V33.9999H608.798V29.2171C608.798 28.6312 608.69 28.1893 608.476 27.8915C608.266 27.5936 607.934 27.4447 607.479 27.4447C606.796 27.4447 606.33 27.6766 606.081 28.1405C605.832 28.6044 605.707 29.2733 605.707 30.1473V33.9999H603.473V25.8114H605.18L605.48 26.8587H605.604C605.78 26.5755 605.998 26.3461 606.256 26.1703C606.52 25.9945 606.811 25.8651 607.128 25.7821C607.45 25.6991 607.782 25.6576 608.124 25.6576ZM616.781 32.3666C617.025 32.3666 617.262 32.3421 617.492 32.2933C617.726 32.2445 617.958 32.1835 618.188 32.1102V33.7728C617.948 33.8802 617.65 33.9681 617.294 34.0365C616.942 34.1097 616.557 34.1463 616.137 34.1463C615.648 34.1463 615.209 34.0682 614.818 33.912C614.433 33.7508 614.127 33.475 613.903 33.0843C613.683 32.6888 613.573 32.1395 613.573 31.4364V27.4886H612.504V26.5438L613.734 25.7967L614.379 24.0682H615.807V25.8114H618.1V27.4886H615.807V31.4364C615.807 31.7489 615.895 31.9833 616.071 32.1395C616.251 32.2909 616.488 32.3666 616.781 32.3666ZM623.205 25.6429C624.303 25.6429 625.146 25.8822 625.731 26.3607C626.317 26.8392 626.61 27.5668 626.61 28.5433V33.9999H625.05L624.618 32.8866H624.56C624.325 33.1796 624.086 33.4188 623.842 33.6044C623.598 33.7899 623.317 33.9266 623 34.0145C622.682 34.1024 622.296 34.1463 621.842 34.1463C621.359 34.1463 620.924 34.0536 620.539 33.868C620.158 33.6825 619.857 33.3993 619.638 33.0184C619.418 32.6327 619.308 32.1444 619.308 31.5536C619.308 30.6844 619.613 30.0448 620.224 29.6346C620.834 29.2196 621.75 28.9901 622.97 28.9462L624.391 28.9022V28.5433C624.391 28.1136 624.279 27.7987 624.054 27.5985C623.83 27.3983 623.517 27.2982 623.117 27.2982C622.721 27.2982 622.333 27.3544 621.952 27.4667C621.571 27.579 621.19 27.7206 620.81 27.8915L620.07 26.3827C620.504 26.1532 620.99 25.9725 621.527 25.8407C622.069 25.7088 622.628 25.6429 623.205 25.6429ZM624.391 30.2059L623.527 30.2352C622.804 30.2547 622.301 30.3841 622.018 30.6234C621.74 30.8627 621.601 31.1776 621.601 31.5682C621.601 31.91 621.701 32.1542 621.901 32.3006C622.101 32.4422 622.362 32.513 622.685 32.513C623.163 32.513 623.566 32.3714 623.893 32.0882C624.225 31.805 624.391 31.4022 624.391 30.8797V30.2059ZM632.367 32.3666C632.611 32.3666 632.848 32.3421 633.078 32.2933C633.312 32.2445 633.544 32.1835 633.773 32.1102V33.7728C633.534 33.8802 633.236 33.9681 632.88 34.0365C632.528 34.1097 632.143 34.1463 631.723 34.1463C631.234 34.1463 630.795 34.0682 630.404 33.912C630.019 33.7508 629.713 33.475 629.489 33.0843C629.269 32.6888 629.159 32.1395 629.159 31.4364V27.4886H628.09V26.5438L629.32 25.7967L629.965 24.0682H631.393V25.8114H633.686V27.4886H631.393V31.4364C631.393 31.7489 631.481 31.9833 631.657 32.1395C631.837 32.2909 632.074 32.3666 632.367 32.3666ZM642.877 29.891C642.877 30.5746 642.785 31.18 642.599 31.7074C642.418 32.2347 642.152 32.6815 641.801 33.0477C641.454 33.409 641.034 33.6825 640.541 33.868C640.053 34.0536 639.501 34.1463 638.886 34.1463C638.31 34.1463 637.78 34.0536 637.296 33.868C636.818 33.6825 636.4 33.409 636.044 33.0477C635.692 32.6815 635.419 32.2347 635.224 31.7074C635.033 31.18 634.938 30.5746 634.938 29.891C634.938 28.9828 635.099 28.2137 635.421 27.5838C635.744 26.954 636.203 26.4754 636.798 26.1483C637.394 25.8212 638.104 25.6576 638.93 25.6576C639.696 25.6576 640.375 25.8212 640.966 26.1483C641.562 26.4754 642.028 26.954 642.365 27.5838C642.707 28.2137 642.877 28.9828 642.877 29.891ZM637.216 29.891C637.216 30.4281 637.274 30.8797 637.392 31.246C637.509 31.6122 637.692 31.888 637.941 32.0736C638.19 32.2591 638.515 32.3519 638.915 32.3519C639.311 32.3519 639.63 32.2591 639.875 32.0736C640.124 31.888 640.304 31.6122 640.417 31.246C640.534 30.8797 640.592 30.4281 640.592 29.891C640.592 29.349 640.534 28.8998 640.417 28.5433C640.304 28.182 640.124 27.911 639.875 27.7303C639.625 27.5497 639.301 27.4593 638.9 27.4593C638.31 27.4593 637.88 27.662 637.611 28.0672C637.348 28.4725 637.216 29.0804 637.216 29.891Z" fill="#3F3D56"/>
<path d="M317 1H708" stroke="#ECEFF2"/>
</svg>
